<?xml version="1.0" encoding="UTF-8" standalone="no"?><svg xmlns:svg="http://www.w3.org/2000/svg" xmlns="http://www.w3.org/2000/svg" version="1.1" width="200" height="200" id="svg3589"><defs id="defs3591"/><g transform="translate(0,-852.36218)" id="layer1"><rect width="200" height="200" rx="35.433071" ry="35.433071" x="1.3693473e-16" y="852.36218" id="rect4117" style="fill:#000000;fill-opacity:1;stroke:none"/><path d="m 105.1232,99.547081 -56.373199,0 -56.3731991,0 L 20.563401,50.72646 48.75,1.905838 76.936599,50.726459 105.1232,99.547081 z" transform="matrix(0,0.44684964,-0.16053261,0,183.46831,930.57826)" id="path4559-8" style="fill:#ffffff;fill-opacity:1;fill-rule:evenodd;stroke:none"/><path d="m 105.1232,99.547081 -56.373199,0 -56.3731991,0 L 20.563401,50.72646 48.75,1.905838 76.936599,50.726459 105.1232,99.547081 z" transform="matrix(0.77335053,0,0,-0.16053261,61.714843,1006.0215)" id="path4559-4" style="fill:#ffffff;fill-opacity:1;fill-rule:evenodd;stroke:none"/><path d="m 105.1232,99.547081 -56.373199,0 -56.3731991,0 L 20.563401,50.72646 48.75,1.905838 76.936599,50.726459 105.1232,99.547081 z" transform="matrix(0,0.44684964,0.16053261,0,16.531691,930.57826)" id="path4559-8-2" style="fill:#ffffff;fill-opacity:1;fill-rule:evenodd;stroke:none"/><path d="m 105.1232,99.547081 -56.373199,0 -56.3731991,0 L 20.563401,50.72646 48.75,1.905838 76.936599,50.726459 105.1232,99.547081 z" transform="matrix(0.77335053,0,0,0.16053261,62.299159,898.70291)" id="path4559" style="fill:#ffffff;fill-opacity:1;fill-rule:evenodd;stroke:none"/><rect width="115.34554" height="59.492023" x="42.327225" y="922.61615" id="rect4119" style="fill:none;stroke:#ffffff;stroke-width:3.34833837;stroke-linecap:butt;stroke-linejoin:round;stroke-miterlimit:4;stroke-opacity:1;stroke-dasharray:none"/></g></svg>