<?xml version="1.0" encoding="UTF-8" standalone="no"?><svg xmlns:svg="http://www.w3.org/2000/svg" xmlns="http://www.w3.org/2000/svg" version="1.1" width="200" height="200" id="svg3589"><defs id="defs3591"/><g transform="translate(0,-852.36218)" id="layer1"><rect width="200" height="200" rx="35.433071" ry="35.433071" x="0" y="0" transform="translate(0,852.36218)" id="rect4117" style="fill:#000000;fill-opacity:1;stroke:none"/><rect width="95.909744" height="49.467575" x="52.045128" y="927.62836" id="rect4119" style="fill:none;stroke:#ffffff;stroke-width:2.78414106;stroke-linecap:butt;stroke-linejoin:round;stroke-miterlimit:4;stroke-opacity:1;stroke-dasharray:none"/><path d="m 105.1232,99.547081 -56.373199,0 -56.3731991,0 L 20.563401,50.72646 48.75,1.905838 76.936599,50.726459 105.1232,99.547081 z" transform="matrix(0,0.94908854,0.20066576,0,154.51608,906.09412)" id="path4559-8" style="fill:#ffffff;fill-opacity:1;fill-rule:evenodd;stroke:none"/><path d="m 105.1232,99.547081 -56.373199,0 -56.3731991,0 L 20.563401,50.72646 48.75,1.905838 76.936599,50.726459 105.1232,99.547081 z" transform="matrix(0.96668815,0,0,0.21350837,52.289634,985.27608)" id="path4559-4" style="fill:#ffffff;fill-opacity:1;fill-rule:evenodd;stroke:none"/><path d="m 105.1232,99.547081 -56.373199,0 -56.3731991,0 L 20.563401,50.72646 48.75,1.905838 76.936599,50.726459 105.1232,99.547081 z" transform="matrix(0.96668815,0,0,-0.21350837,52.87395,919.44833)" id="path4559" style="fill:#ffffff;fill-opacity:1;fill-rule:evenodd;stroke:none"/><path d="m 105.1232,99.547081 -56.373199,0 -56.3731991,0 L 20.563401,50.72646 48.75,1.905838 76.936599,50.726459 105.1232,99.547081 z" transform="matrix(0,0.94908854,-0.20066576,0,45.483927,906.09412)" id="path4559-8-2" style="fill:#ffffff;fill-opacity:1;fill-rule:evenodd;stroke:none"/></g></svg>